<?xml version="1.0" standalone="no"?><!DOCTYPE svg PUBLIC "-//W3C//DTD SVG 1.1//EN" "http://www.w3.org/Graphics/SVG/1.1/DTD/svg11.dtd"><svg t="1670166826150" class="icon" viewBox="0 0 1024 1024" version="1.1" xmlns="http://www.w3.org/2000/svg" p-id="20795" xmlns:xlink="http://www.w3.org/1999/xlink" width="128" height="128"><path d="M512 853.333333a341.333333 341.333333 0 0 0 341.333333-341.333333 341.333333 341.333333 0 0 0-341.333333-341.333333 341.333333 341.333333 0 0 0-341.333333 341.333333 341.333333 341.333333 0 0 0 341.333333 341.333333m0-768a426.666667 426.666667 0 0 1 426.666667 426.666667 426.666667 426.666667 0 0 1-426.666667 426.666667C276.053333 938.666667 85.333333 746.666667 85.333333 512A426.666667 426.666667 0 0 1 512 85.333333m21.333333 213.333334v224l192 113.92-32 52.48L469.333333 554.666667V298.666667h64z" fill="#707070" p-id="20796"></path></svg>