<?xml version="1.0" standalone="no"?><!DOCTYPE svg PUBLIC "-//W3C//DTD SVG 1.1//EN" "http://www.w3.org/Graphics/SVG/1.1/DTD/svg11.dtd"><svg t="1668994200216" class="icon" viewBox="0 0 1024 1024" version="1.1" xmlns="http://www.w3.org/2000/svg" p-id="21848" xmlns:xlink="http://www.w3.org/1999/xlink" width="128" height="128"><path d="M460.8 34.133333m17.066667 0l68.266666 0q17.066667 0 17.066667 17.066667l0 238.933333q0 17.066667-17.066667 17.066667l-68.266666 0q-17.066667 0-17.066667-17.066667l0-238.933333q0-17.066667 17.066667-17.066667Z" fill="#707070" p-id="21849"></path><path d="M813.617102 137.868623m12.067955 12.067956l48.271823 48.271823q12.067956 12.067956 0 24.135911l-168.95138 168.95138q-12.067956 12.067956-24.135911 0l-48.271823-48.271823q-12.067956-12.067956 0-24.135911l168.95138-168.95138q12.067956-12.067956 24.135911 0Z" fill="#707070" p-id="21850"></path><path d="M989.866667 460.8m0 17.066667l0 68.266666q0 17.066667-17.066667 17.066667l-238.933333 0q-17.066667 0-17.066667-17.066667l0-68.266666q0-17.066667 17.066667-17.066667l238.933333 0q17.066667 0 17.066667 17.066667Z" fill="#707070" p-id="21851"></path><path d="M886.190253 813.663909m-12.067956 12.067956l-48.271823 48.271823q-12.067956 12.067956-24.135911 0l-168.951381-168.95138q-12.067956-12.067956 0-24.135912l48.271823-48.271823q12.067956-12.067956 24.135912 0l168.95138 168.951381q12.067956 12.067956 0 24.135911Z" fill="#707070" p-id="21852"></path><path d="M563.2 989.866667m-17.066667 0l-68.266666 0q-17.066667 0-17.066667-17.066667l0-238.933333q0-17.066667 17.066667-17.066667l68.266666 0q17.066667 0 17.066667 17.066667l0 238.933333q0 17.066667-17.066667 17.066667Z" fill="#707070" p-id="21853"></path><path d="M210.27825 886.130948m-12.067956-12.067955l-48.271823-48.271823q-12.067956-12.067956 0-24.135912l168.951381-168.95138q12.067956-12.067956 24.135911 0l48.271823 48.271823q12.067956 12.067956 0 24.135911l-168.95138 168.951381q-12.067956 12.067956-24.135912 0Z" fill="#707070" p-id="21854"></path><path d="M34.133333 563.2m0-17.066667l0-68.266666q0-17.066667 17.066667-17.066667l238.933333 0q17.066667 0 17.066667 17.066667l0 68.266666q0 17.066667-17.066667 17.066667l-238.933333 0q-17.066667 0-17.066667-17.066667Z" fill="#707070" p-id="21855"></path><path d="M137.923786 210.340054m12.067956-12.067956l48.271823-48.271823q12.067956-12.067956 24.135911 0l168.951381 168.951381q12.067956 12.067956 0 24.135911l-48.271823 48.271823q-12.067956 12.067956-24.135912 0l-168.95138-168.95138q-12.067956-12.067956 0-24.135912Z" fill="#707070" p-id="21856"></path></svg>