<?xml version="1.0" standalone="no"?><!DOCTYPE svg PUBLIC "-//W3C//DTD SVG 1.1//EN" "http://www.w3.org/Graphics/SVG/1.1/DTD/svg11.dtd"><svg fill="#707070" t="1670171400531" class="icon" viewBox="0 0 1024 1024" version="1.1" xmlns="http://www.w3.org/2000/svg" p-id="27905" xmlns:xlink="http://www.w3.org/1999/xlink" width="128" height="128"><path d="M981.333333 426.666667C981.333333 379.306667 942.933333 341.333333 896 341.333333L626.346667 341.333333 667.306667 146.346667C668.16 142.08 668.586667 137.386667 668.586667 132.693333 668.586667 115.2 661.333333 98.986667 649.813333 87.466667L604.586667 42.666667 323.84 323.413333C308.053333 339.2 298.666667 360.533333 298.666667 384L298.666667 810.666667C298.666667 857.6 337.066667 896 384 896L768 896C803.413333 896 833.706667 874.666667 846.506667 843.946667L975.36 543.146667C979.2 533.333333 981.333333 523.093333 981.333333 512L981.333333 430.08 981.333333 426.666667M42.666667 896 213.333333 896 213.333333 384 42.666667 384 42.666667 896Z" p-id="27906"></path></svg>